<svg width="278" height="278" viewBox="0 0 278 278" fill="none" xmlns="http://www.w3.org/2000/svg">
<path d="M67 157V223.5C67 240 77.5 248.5 93.5 248.5C100.554 248.5 96.5 248.5 104 248.5C119.5 248.5 128 242.5 128 223.5C128 223.5 128 205.5 128 194.5C128 178 162.5 178 162.5 194.5C162.5 206.5 162.5 213 162.5 223.5C162.5 238.601 166 248.5 182 248.5C188.639 248.5 190.361 248.5 197 248.5C207.5 248.5 218 237.5 218 223.5C218 205.731 218 153.5 218 153.5" stroke="black" stroke-width="16"/>
<circle cx="59" cy="146" r="28" fill="black"/>
<circle cx="141" cy="58" r="28" fill="black"/>
<circle cx="219" cy="146" r="28" fill="black"/>
<path d="M141 57.5C108 64.5 68.5 116 59 146.5" stroke="black" stroke-width="16"/>
<path d="M141 58C174 65 213.5 116.5 223 147" stroke="black" stroke-width="16"/>
</svg>
