<svg width="1000" height="1000" viewBox="0 0 1000 1000" fill="none" xmlns="http://www.w3.org/2000/svg">
<path d="M376.557 188.657C387.235 177.979 404.525 177.909 415.289 188.499L415.738 188.941C415.738 188.941 415.285 188.505 415.291 188.501C415.291 188.501 415.295 188.504 415.297 188.506C415.302 188.511 415.308 188.519 415.317 188.528C415.336 188.546 415.365 188.574 415.402 188.611C415.477 188.685 415.59 188.796 415.738 188.941C416.034 189.233 416.475 189.666 417.051 190.233C418.204 191.367 419.901 193.038 422.08 195.183C426.439 199.473 432.726 205.663 440.438 213.258C455.864 228.449 476.995 249.267 499.813 271.773C499.877 271.835 499.94 271.898 500.004 271.96C522.702 249.574 543.709 228.879 559.063 213.758C566.776 206.163 573.063 199.973 577.422 195.683C579.601 193.538 581.298 191.867 582.451 190.733C583.027 190.166 583.468 189.732 583.764 189.441C583.912 189.295 584.025 189.185 584.1 189.111C584.137 189.074 584.166 189.046 584.185 189.028C584.194 189.019 584.2 189.011 584.205 189.006C584.207 189.004 584.211 189.001 584.211 189.001C584.214 189.003 583.764 189.441 583.764 189.441L584.213 188.999C594.977 178.409 612.267 178.479 622.945 189.157L829.945 396.157C835.102 401.314 838 408.309 838 415.602V769.102C838 784.29 825.688 796.602 810.5 796.602H584.5C569.312 796.602 557 784.29 557 769.102C557 753.914 569.312 741.602 584.5 741.602H783V426.993L603.348 247.34C601.552 249.109 599.651 250.98 597.655 252.946C582.427 267.943 561.636 288.425 539.152 310.6C572.884 343.918 605.474 376.184 624.946 395.657C653.55 424.262 670.421 448.643 679.535 473.232C688.646 497.814 689.002 520.19 689.002 541.101C689.002 556.824 683.784 575.412 675.894 593.249C667.764 611.628 655.829 631.411 640.271 649.721C609.386 686.07 562.091 718.84 500.239 719.098C500.16 719.099 500.08 719.102 500 719.102C499.917 719.102 499.834 719.1 499.751 719.1C499.668 719.1 499.585 719.102 499.502 719.102C499.421 719.102 499.341 719.099 499.261 719.098C437.46 718.84 390.172 686.244 359.265 650.011C343.699 631.764 331.756 612.038 323.62 593.699C315.723 575.897 310.5 557.333 310.5 541.601C310.5 520.69 310.856 498.314 319.967 473.732C329.081 449.143 345.952 424.762 374.556 396.157C394.125 376.586 426.944 344.095 460.855 310.6C438.178 288.233 417.19 267.555 401.847 252.446C399.851 250.48 397.95 248.609 396.154 246.84L216.502 426.493V741.102H415.002C430.19 741.102 442.502 753.414 442.502 768.602C442.502 783.79 430.19 796.102 415.002 796.102H189.002C173.814 796.102 161.502 783.79 161.502 768.602V415.102C161.502 407.809 164.399 400.814 169.557 395.657L376.557 188.657ZM500.004 349.239C465.946 382.877 433.001 415.494 413.448 435.047C388.055 460.441 376.926 478.31 371.538 492.846C366.148 507.389 365.5 521.013 365.5 541.602C365.5 546.62 367.589 557.182 373.895 571.395C379.961 585.071 389.112 600.252 401.109 614.317C425.156 642.507 458.528 664.013 499.75 664.1C540.923 664.014 574.29 642.433 598.358 614.108C610.363 599.98 619.521 584.732 625.595 571C631.907 556.729 634.002 546.129 634.002 541.102C634.002 520.513 633.354 506.889 627.964 492.346C622.576 477.81 611.447 459.942 586.054 434.547C566.598 415.091 533.881 382.7 500.004 349.239Z" fill="#252D55"/>
</svg>
